simulation
nRows=62
nColumns=15
endheader
time  TH_x TH_y TH_z SC_y  SC_z  SC_x  AC_y  AC_z  AC_x  GH_y  GH_z  GH_yy  EL_x  PS_y
0.000000  0.000000  0.000000  0.000000  -37.783725  1.688310  12.234513  45.599823  -1.860824  1.162663  18.458924  22.086534  -15.188789  98.252607  105.107215
0.047475  0.000000  0.000000  0.000000  -37.544988  2.059011  11.996232  46.538727  -2.042703  1.786978  27.798281  22.839724  -21.364189  98.303777  104.614018
0.094949  0.000000  0.000000  0.000000  -37.243016  2.430324  12.120699  47.433507  -1.892438  2.321202  35.890769  24.307979  -27.536539  96.183276  104.510765
0.142424  0.000000  0.000000  0.000000  -36.882800  2.796760  12.568227  48.279401  -1.509983  2.777897  42.807614  26.376313  -33.597282  92.205137  104.693187
0.189899  0.000000  0.000000  0.000000  -36.469332  3.152830  13.277181  49.087238  -0.971848  3.180328  48.620044  28.929742  -39.437857  86.683391  105.057016
0.237374  0.000000  0.000000  0.000000  -36.007603  3.493048  14.181319  49.869501  -0.344437  3.548331  53.399286  31.853280  -44.949707  79.932069  105.497986
0.284848  0.000000  0.000000  0.000000  -35.502607  3.811923  15.207556  50.632008  0.316919  3.898677  57.216568  35.031941  -50.024270  72.265204  105.911829
0.332323  0.000000  0.000000  0.000000  -34.959334  4.103969  16.284200  51.370296  0.961250  4.239549  60.143115  38.350740  -54.552989  63.996826  106.194277
0.379798  0.000000  0.000000  0.000000  -34.382776  4.363696  17.337447  52.070199  1.544186  4.573399  62.250156  41.694693  -58.427303  55.440968  106.241063
0.427273  0.000000  0.000000  0.000000  -33.777926  4.585616  18.289218  52.711708  2.028952  4.899445  63.608918  44.948812  -61.538654  46.911660  105.947920
0.474747  0.000000  0.000000  0.000000  -33.149774  4.764241  19.062744  53.275846  2.380704  5.212113  64.290628  47.998114  -63.778483  38.722935  105.210580
0.522222  0.000000  0.000000  0.000000  -32.504816  4.894810  19.574966  53.753672  2.577858  5.510114  64.370996  50.729383  -65.050518  31.186172  103.937736
0.569697  0.000000  0.000000  0.000000  -31.874006  4.984407  19.811732  54.150706  2.654714  5.786357  63.998755  53.058225  -65.458626  24.569537  102.249151
0.617172  0.000000  0.000000  0.000000  -31.308197  5.049752  19.831470  54.471767  2.672378  6.026387  63.382043  54.923699  -65.269495  19.106045  100.436311
0.664646  0.000000  0.000000  0.000000  -30.858823  5.107844  19.722324  54.705356  2.663371  6.208105  62.730726  56.265542  -64.754542  15.027690  98.795685
0.712121  0.000000  0.000000  0.000000  -30.577317  5.175685  19.593718  54.818008  2.636974  6.302565  62.254667  57.023492  -64.185183  12.566465  97.623743
0.759596  0.000000  0.000000  0.000000  -30.514334  5.270007  19.569899  54.759317  2.586535  6.272205  62.159996  57.138945  -63.828248  11.949891  97.211551
0.807071  0.000000  0.000000  0.000000  -30.683840  5.394981  19.706018  54.512636  2.508682  6.105918  62.476478  56.631624  -63.733882  13.194254  97.594848
0.854545  0.000000  0.000000  0.000000  -31.047994  5.537034  19.947735  54.125965  2.416087  5.838832  62.984857  55.631841  -63.646281  16.017588  98.448870
0.902020  0.000000  0.000000  0.000000  -31.565045  5.681253  20.226469  53.659395  2.328916  5.512845  63.447067  54.278266  -63.286535  20.115402  99.421625
0.949495  0.000000  0.000000  0.000000  -32.193241  5.812728  20.479939  53.173028  2.258450  5.171904  63.625044  52.709563  -62.375734  25.183202  100.161121
0.996970  0.000000  0.000000  0.000000  -32.890847  5.916554  20.661175  52.722468  2.197260  4.859188  63.280968  51.064341  -60.635311  30.916625  100.315735
1.044444  0.000000  0.000000  0.000000  -33.622820  5.980923  20.745530  52.339417  2.130662  4.599694  62.271313  49.457741  -57.920357  37.061731  99.677849
1.091919  0.000000  0.000000  0.000000  -34.370938  6.001804  20.727523  52.006758  2.068734  4.378135  60.689567  47.945931  -54.421903  43.491306  98.401780
1.139394  0.000000  0.000000  0.000000  -35.119582  5.976371  20.601881  51.701795  2.029606  4.172082  58.665864  46.575957  -50.382920  50.097734  96.697809
1.186869  0.000000  0.000000  0.000000  -35.853132  5.901797  20.361984  51.402619  2.033806  3.958148  56.330337  45.394867  -46.046381  56.773396  94.776218
1.234343  0.000000  0.000000  0.000000  -36.555966  5.775256  19.995757  51.087066  2.106954  3.715153  53.813118  44.449709  -41.655257  63.410675  92.847286
1.281818  0.000000  0.000000  0.000000  -37.216593  5.598429  19.512438  50.737815  2.262759  3.425372  51.243122  43.773719  -37.433130  69.914441  91.084120
1.329293  0.000000  0.000000  0.000000  -37.842862  5.394119  19.000976  50.362170  2.472769  3.103227  48.743551  43.335425  -33.512729  76.248070  89.485646
1.376768  0.000000  0.000000  0.000000  -38.448281  5.191310  18.574447  49.975204  2.696115  2.771501  46.435935  43.084416  -30.000196  82.392057  87.999819
1.424242  0.000000  0.000000  0.000000  -39.046360  5.018987  18.345059  49.592633  2.893349  2.452754  44.441803  42.970282  -27.001671  88.326901  86.574591
1.471717  0.000000  0.000000  0.000000  -39.650607  4.906135  18.423990  49.230671  3.026437  2.169587  42.882686  42.942612  -24.623295  94.033100  85.157911
1.519192  0.000000  0.000000  0.000000  -40.273072  4.878452  18.910211  48.905379  3.062686  1.942092  41.868456  42.954887  -22.964622  99.486036  83.706668
1.566667  0.000000  0.000000  0.000000  -40.912518  4.931745  19.786126  48.629448  3.018561  1.774429  41.402931  42.996027  -22.065322  104.614541  82.259067
1.614141  0.000000  0.000000  0.000000  -41.560620  5.045861  20.976532  48.414290  2.932558  1.660122  41.433323  43.073860  -21.933097  109.322604  80.896715
1.661616  0.000000  0.000000  0.000000  -42.208983  5.200501  22.404112  48.272232  2.843488  1.594924  41.906310  43.196396  -22.575348  113.513976  79.701628
1.709091  0.000000  0.000000  0.000000  -42.849214  5.375364  23.992116  48.217168  2.788479  1.575627  42.768572  43.371642  -23.999476  117.092411  78.755821
1.756566  0.000000  0.000000  0.000000  -43.472906  5.550759  25.663633  48.263464  2.802724  1.601544  43.965517  43.606725  -26.206559  119.966249  78.140248
1.804040  0.000000  0.000000  0.000000  -44.071362  5.719462  27.379439  48.397693  2.879045  1.665803  45.416667  43.890806  -29.068686  122.137350  77.914200
1.851515  0.000000  0.000000  0.000000  -44.635617  5.885884  29.133855  48.577670  2.973957  1.754512  47.017377  44.196273  -32.337525  123.694887  78.116745
1.898990  0.000000  0.000000  0.000000  -45.156697  6.054881  30.922375  48.757308  3.045030  1.850800  48.662074  44.494870  -35.760131  124.731376  78.786175
1.946465  0.000000  0.000000  0.000000  -45.625626  6.231310  32.741185  48.887461  3.052286  1.933914  50.245187  44.758341  -39.083558  125.339333  79.960782
1.993939  0.000000  0.000000  0.000000  -46.033547  6.419925  34.584239  48.916332  2.961110  1.980837  51.661656  44.958747  -42.056461  125.611051  81.677907
2.041414  0.000000  0.000000  0.000000  -46.379712  6.618406  36.440999  48.822159  2.762541  1.979029  52.841577  45.089671  -44.536762  125.623410  83.909799
2.088889  0.000000  0.000000  0.000000  -46.676541  6.812944  38.292797  48.635598  2.484562  1.939681  53.772150  45.179664  -46.559899  125.428251  86.522962
2.136364  0.000000  0.000000  0.000000  -46.937665  6.988676  40.121905  48.392823  2.154724  1.878120  54.445807  45.260479  -48.177571  125.075127  89.374215
2.183838  0.000000  0.000000  0.000000  -47.176711  7.130741  41.912735  48.130672  1.796093  1.811634  54.854980  45.363870  -49.441479  124.613585  92.320374
2.231313  0.000000  0.000000  0.000000  -47.407304  7.224281  43.652821  47.886542  1.426507  1.758681  54.992123  45.521581  -50.403326  124.093171  95.218285
2.278788  0.000000  0.000000  0.000000  -47.637496  7.260945  45.331744  47.683638  1.058203  1.730767  54.873210  45.752493  -51.118081  123.555604  97.957958
2.326263  0.000000  0.000000  0.000000  -47.859036  7.251408  46.941662  47.502893  0.696632  1.713640  54.583040  46.037862  -51.650270  123.019719  100.526437
2.373737  0.000000  0.000000  0.000000  -48.060709  7.209808  48.473321  47.318080  0.348981  1.687916  54.218935  46.352097  -52.066158  122.500188  102.928424
2.421212  0.000000  0.000000  0.000000  -48.231296  7.150283  49.912197  47.103632  0.027735  1.636280  53.878215  46.669606  -52.432010  122.011681  105.168618
2.468687  0.000000  0.000000  0.000000  -48.359583  7.086971  51.243871  46.834668  -0.253551  1.540205  53.658203  46.964798  -52.814090  121.568869  107.251719
2.516162  0.000000  0.000000  0.000000  -48.437612  7.031626  52.455547  46.495345  -0.483077  1.384392  53.635416  47.216930  -53.266140  121.183733  109.183256
2.563636  0.000000  0.000000  0.000000  -48.475343  6.982890  53.523186  46.116464  -0.649310  1.189888  53.772031  47.431911  -53.773074  120.853468  110.973316
2.611111  0.000000  0.000000  0.000000  -48.488857  6.934928  54.429786  45.744159  -0.750861  0.984675  53.991145  47.624754  -54.296281  120.570216  112.633543
2.658586  0.000000  0.000000  0.000000  -48.494242  6.881897  55.158537  45.423941  -0.788488  0.798298  54.215822  47.810484  -54.797129  120.326115  114.175582
2.706061  0.000000  0.000000  0.000000  -48.507586  6.817958  55.694830  45.200775  -0.765615  0.659497  54.369128  48.004122  -55.236987  120.113303  115.611079
2.753535  0.000000  0.000000  0.000000  -48.543609  6.738233  56.038491  45.114601  -0.694582  0.586403  54.380524  48.218633  -55.579885  119.924422  116.948208
2.801010  0.000000  0.000000  0.000000  -48.602104  6.648360  56.200316  45.155120  -0.581036  0.586938  54.249319  48.444502  -55.818890  119.757607  118.157268
2.848485  0.000000  0.000000  0.000000  -48.673675  6.560451  56.243765  45.281186  -0.458492  0.629943  54.017814  48.658376  -55.964941  119.614377  119.185244
2.895960  0.000000  0.000000  0.000000  -48.748792  6.486712  56.201211  45.451859  -0.338127  0.706030  53.728936  48.836701  -56.029242  119.496302  119.978777
